<?xml version="1.0" encoding="UTF-8"?>
<svg id="Layer_1" data-name="Layer 1" xmlns="http://www.w3.org/2000/svg" viewBox="0 0 360 280">
  <defs>
    <style>
      .cls-1 {
        fill: #cecece;
      }

      .cls-2 {
        fill: #353839;
      }
    </style>
  </defs>
  <g>
    <path class="cls-2" d="M188.04,82.9h9.47v23.25c0,9,6.25,18.02,17.12,11.66,1.63-.95,2.61-2.71,2.61-4.6v-30.32h9.47v46.52h-9.47v-7.05c-2.77,4.24-7.54,7.05-12.95,7.05-11.88,0-16.25-13.44-16.25-23.27v-23.25Z"/>
    <path class="cls-2" d="M245.26,82.9h12.95v-15.3h9.47v61.82h-9.47v-7.05c-2.77,4.24-7.54,7.05-12.95,7.05-10.58,0-16.25-11-16.25-22.45s5.16-24.07,16.25-24.07ZM258.2,92.36h-9.47c-6.87,0-10.26,7.39-10.26,14.61,0,8.95,7.18,17.46,17.84,10.32,1.18-.79,1.89-2.11,1.89-3.53v-21.4Z"/>
    <path class="cls-2" d="M289.27,82.9c12.56,0,18.99,11.08,19.28,22.45.31,11.9-6.1,24.07-19.28,24.07s-19.59-12.18-19.28-24.07c.29-11.37,6.73-22.45,19.28-22.45ZM299.09,105.35c-.26-6.61-3.47-12.98-9.81-12.98s-9.56,6.37-9.81,12.98c-.23,6.15,2.35,14.61,9.81,14.61s10.04-8.47,9.81-14.61Z"/>
    <path class="cls-2" d="M142.76,68.85h54.75v10.03c-16.09,0-26.55,7.09-26.55,24.48,0,9.08,3.2,17.91,7.96,26.04h-9.99c-.24,0-.46-.13-.58-.33-4.65-8.07-7.76-17.77-7.76-25.7,0-8.82,3.81-17.47,10.73-24.13h-28.54s0-10.38,0-10.38Z"/>
  </g>
  <g>
    <path class="cls-2" d="M164.09,150.56c10.44,0,17.44,8.49,15.6,18.94l-1.6,9.06h-28.24c.28,5,2.64,9.06,7.71,9.06,2.59,0,7.53-1.9,8.8-4.53h10.29c-3.31,8.27-11.96,14-20.76,14-13.18,0-17.44-12.18-15.04-24.07,2.3-11.36,10.67-22.45,23.25-22.46ZM162.44,160.05c-5.05-.04-8.87,4.06-10.91,9.06h18.75c.66-4.91-2.91-9.05-7.83-9.06Z"/>
    <path class="cls-2" d="M202.6,160.03c-5.21,0-10.22,4.26-11.14,9.47l-4.87,27.61h-9.47l8.21-46.53h9.47l-1.24,7.03c3.52-4.24,8.79-7.05,14.2-7.05,11.88,0,13.88,13.44,12.14,23.27l-4.1,23.27h-9.47l4.1-23.27c1.22-6.89-1.23-13.78-7.83-13.8Z"/>
    <path class="cls-2" d="M242.56,150.58h12.95l2.7-15.3h9.47l-10.9,61.82h-9.47l1.24-7.05c-3.52,4.24-8.79,7.05-14.2,7.05-10.58,0-14.31-11-12.29-22.45,2.1-11.9,9.4-24.07,20.49-24.07ZM253.83,160.03h-9.47c-6.87,0-11.56,7.39-12.84,14.61-1.17,6.61,1.63,12.98,7.97,12.98,5.21,0,10.22-4.26,11.14-9.47l3.2-18.12Z"/>
    <path class="cls-2" d="M296.97,197.1h-9.47l1.6-9.05c-2.99,4.35-7.82,9.05-14.77,9.05-10.52,0-14.29-5.77-12.86-13.52,2.8-15.15,18.08-14.82,30.95-14.49.67-5.02-2.79-9.06-7.86-9.06h-14.21l1.67-9.47h14.21c10.41,0,17.44,8.53,15.6,18.94l-4.87,27.59ZM290.76,178.58c-6.44-.75-19.18-.98-19.82,5.05-.77,7.42,16.02,3.48,19.82-5.05Z"/>
    <path class="cls-2" d="M109.23,187.28c2.11.97,4.55,1.51,7.19,1.51,10.55,0,20.61-8.55,22.48-19.1.46-2.63.37-5.13-.18-7.4-.23,0-7.75.11-11.14.32,1.59,1.76,2.34,4.28,1.85,7.08-.93,5.32-6.01,9.64-11.34,9.64s-8.87-4.31-7.94-9.64c.34-1.95,1.24-3.77,2.51-5.28-4.48.83-8.31,1.83-11.54,2.85,0,0-.43,2.36-.43,2.36,0,.03-.01.05-.02.08-.06.32-.11.64-.14.96-.77,6.05,1.41,11.36,5.48,14.65-1.94.96-4.65,2.65-6.97,5.44-2.05,2.58-.62,4.82,3.21,4.89-2.74,1.48-5.18,3.69-6,6.35-2.01,6.57,5.86,10.44,15.45,10.44,11.4,0,22.21-1.9,24.15-13.04,2.67-15.38-37.64-2.77-26.64-12.07ZM108.07,196.24c7.28.42,18.94-.51,18.34,3.13-.44,1.66-3.51,3.42-12.31,3.42-6.89,0-11.83-1.12-6.66-6.31.16-.16.39-.25.62-.24Z"/>
    <path class="cls-1" d="M98.5,153.06l-4.94,2-4.93,1.9c-.93-6.05-3.79-9.96-7.84-9.96-2.49,0-5.91,1.5-8.83,4.4-5.35,5.4-8.24,14.7-9.57,22.26-1.24,7.06-.9,14.04-.09,20.77l-10.13,2.82c-.95-7.81-1.09-15.95.36-24.17,2.55-14.45,12.09-36.05,29.95-36.05,10.12,0,14.58,7.27,16.04,16.03Z"/>
    <path class="cls-1" d="M100.68,169.68c-.06.32-.11.64-.14.96.06-.35.11-.7.16-1.04,0,.03-.01.05-.02.08ZM109.1,152.95s-.08.02-.11.02c-4.83.97-9.89,2.32-14.59,4.22-4.38,1.68-8.65,3.77-12.61,6.34-6.44,4.34-11.29,10.71-12.7,18.68-1.3,7.39,1.25,15.04,9.56,15.04,2.16,0,4.27-.66,6.29-1.75,8.2-4.57,11.77-16.36,13.16-24.26l.56-3.18c-3.8,1.38-7.76,3.2-11.01,5.54-.45,2.05-1.06,4.29-1.88,6.41-1.05,2.71-2.46,5.22-4.38,6.85-.29.25-.66.41-.99.41-1.91,0-1.57-3.82-1.34-5.15.8-4.52,3.52-8.05,7.07-10.54,0,0,.69-.53,2.13-1.36.19-.11.4-.23.62-.35,0,0,.02,0,.03-.02,4.2-2.33,13.3-6.41,28.29-8.53.22-.03.44-.06.67-.09,6.94-.92,15.21-1.44,24.93-1.19l1.67-9.47s-16.76-1.49-35.38,2.37Z"/>
  </g>
</svg>