<?xml version="1.0" encoding="UTF-8"?>
<svg id="Layer_1" data-name="Layer 1" xmlns="http://www.w3.org/2000/svg" viewBox="0 0 360 280">
  <defs>
    <style>
      .cls-1 {
        fill: #1d1d1d;
      }
    </style>
  </defs>
  <path class="cls-1" d="M133.94,59.27c-27.22,28.8-43.22,72.79-49.16,106.51-1.03,5.86-1.85,11.7-2.47,17.52V59.27h51.63Z"/>
  <path class="cls-1" d="M277.7,59.27v35.16c-11.61,3.02-23.24,6.71-34.32,11.2-16.6,6.37-32.75,14.26-47.73,24-24.4,16.45-42.76,40.55-48.08,70.75-1.21,6.87-1.55,13.81-.89,20.35h-27.2c-.94-17.32-.47-34.96,2.66-52.74,5.05-28.63,15.98-63.85,36.25-84.3,11.06-11.01,24.01-16.67,33.45-16.67,15.34,0,26.15,14.78,29.68,37.7l18.67-7.19,18.72-7.55c-1.85-11.15-4.99-21.66-9.8-30.7h28.6Z"/>
  <path class="cls-1" d="M222.65,153.6c10.27-5.69,28.29-14.15,55.05-21.6v88.73h-41.4c11.56-19.71,17.89-43.57,21.12-61.87l2.13-12.02c-14.4,5.22-29.4,12.1-41.7,20.96-1.72,7.76-4,16.25-7.11,24.28-3.99,10.27-9.33,19.76-16.59,25.93-1.11.94-2.49,1.57-3.74,1.57-7.24,0-5.94-14.46-5.06-19.5,3.02-17.11,13.32-30.48,26.79-39.91,0,0,2.61-2,8.05-5.16.73-.42,1.51-.87,2.35-1.33.04-.02.07-.04.1-.06Z"/>
</svg>